<svg fill="none" height="20" viewBox="0 0 20 20" width="20" xmlns="http://www.w3.org/2000/svg"><g fill="#20294c"><path clip-rule="evenodd" d="m8 1c-.55228 0-1 .44772-1 1h-2.14568c-.97662 0-1.81588.69032-1.99093 1.64223l-.76551 4.16289c-.13691.74453-.13014 1.50796.01996 2.24998l1.28186 6.3371c.15956.7888.77554 1.3912 1.54335 1.5601v.0477c0 .5523.45282 1 1.01139 1 .55858 0 1.01139-.4477 1.01139-1h1.01139v-1c0-1.1046.90563-2 2.02278-2 1.1172 0 2.0228.8954 2.0228 2v1h1.0114c0 .5523.4528 1 1.0114 1 .5585 0 1.0113-.4477 1.0113-1v-.0477c.7679-.1689 1.3838-.7713 1.5434-1.5601l1.2819-6.3371c.1501-.74202.1568-1.50544.0199-2.24998l-.7655-4.16289c-.1749-.95134-1.0132-1.64223-1.9904-1.64223h-2.1462c0-.55228-.4477-1-1-1zm-3.56264 10.5c0-.5523.45281-1 1.01139-1 .55857 0 1.01139.4477 1.01139 1s-.45282 1-1.01139 1c-.55858 0-1.01139-.4477-1.01139-1zm10.11394-1c-.5586 0-1.0114.4477-1.0114 1s.4528 1 1.0114 1c.5585 0 1.0113-.4477 1.0113-1s-.4528-1-1.0113-1zm-4.5513 1c-.83786 0-1.51708.6716-1.51708 1.5s.67922 1.5 1.51708 1.5c.8379 0 1.5171-.6716 1.5171-1.5s-.6792-1.5-1.5171-1.5zm-5.91197-3.33711.61518-3.34195c.08751-.47541.50632-.82094.99504-.82094h8.60385c.4888 0 .9076.34559.9951.82105l.6148 3.34184c.0847.46099-.3133.83711-.7872.83711h-10.24957c-.47389 0-.87197-.37612-.7872-.83711z" fill-rule="evenodd"/><path d="m11.0114 17c0-.5523-.4528-1-1.0114-1-.55857 0-1.01139.4477-1.01139 1v2c0 .5523.45282 1 1.01139 1 .5586 0 1.0114-.4477 1.0114-1z"/></g></svg>