<svg width="20" height="20" viewBox="0 0 20 20" fill="none" xmlns="http://www.w3.org/2000/svg">
<path d="M6.50003 13C6.77617 13 7.00003 12.7761 7.00003 12.5C7.00003 12.2238 6.77617 12 6.50003 12C6.22389 12 6.00003 12.2238 6.00003 12.5C6.00003 12.7761 6.22389 13 6.50003 13Z" fill="#20294C"/>
<path d="M9.00003 12.5C9.00003 12.7761 8.77617 13 8.50003 13C8.22389 13 8.00003 12.7761 8.00003 12.5C8.00003 12.2238 8.22389 12 8.50003 12C8.77617 12 9.00003 12.2238 9.00003 12.5Z" fill="#20294C"/>
<path d="M7.50003 15C7.77617 15 8.00003 14.7761 8.00003 14.5C8.00003 14.2238 7.77617 14 7.50003 14C7.22389 14 7.00003 14.2238 7.00003 14.5C7.00003 14.7761 7.22389 15 7.50003 15Z" fill="#20294C"/>
<path fill-rule="evenodd" clip-rule="evenodd" d="M5.00004 19V18.9722C3.44359 18.771 2.00004 17.498 2.00004 15.7739V10.3741C1.36052 9.61302 0.923218 8.56419 1.15398 7.42655C2.02789 3.11838 6.30844 1.19391 10.1731 1.25124C14.0439 1.30867 18.2434 3.36713 18.9118 7.79858C19.0674 8.83018 18.6217 9.76556 18 10.401V15.7739C18 17.6555 16.2806 19 14.5715 19H11.5837L11.5715 19H5.00004ZM3.11406 7.82415C3.64688 5.19749 6.10086 3.59628 9.00307 3.29998C10.6388 3.30066 11.7585 3.85709 12.5195 4.6713C13.3023 5.50878 13.7803 6.70156 13.9452 8.07025C13.981 8.36742 13.8571 8.72109 13.5492 9.02365C13.1979 9.36881 13 9.84062 13 10.3331V15.7739C13 16.3491 12.3914 16.9954 11.58 17H5.42861C4.61299 17 4.00004 16.3511 4.00004 15.7739V10.0055C4.00004 9.72259 3.88635 9.45149 3.68453 9.25317C3.21104 8.78792 3.02681 8.25431 3.11406 7.82415Z" fill="#20294C"/>
</svg>
