<svg xmlns="http://www.w3.org/2000/svg" width="20" height="20" fill="#20294C" class="fill-soft"><path fill-rule="evenodd" d="M6.182 1.25a.75.75 0 0 1 .75.75v1h6.136V2a.75.75 0 0 1 1.5 0v1.09A3.751 3.751 0 0 1 17.5 6.75v7a3.75 3.75 0 0 1-3.75 3.75h-7.5a3.75 3.75 0 0 1-3.75-3.75v-7a3.751 3.751 0 0 1 2.932-3.66V2a.75.75 0 0 1 .75-.75zM15.872 6a2.251 2.251 0 0 0-2.122-1.5h-7.5A2.25 2.25 0 0 0 4.128 6h11.744zM4 7.5h12v6.25A2.25 2.25 0 0 1 13.75 16h-7.5A2.25 2.25 0 0 1 4 13.75V7.5z" clip-rule="evenodd"></path></svg>