<svg xmlns="http://www.w3.org/2000/svg" width="16" height="16" fill="#20294C"><path fill-rule="evenodd" d="M4.814.5h3.872c.253 0 .485 0 .68.016.21.016.439.055.666.169.34.169.614.444.784.783.113.227.152.457.168.666.016.195.016.427.016.68v5.872c0 .253 0 .485-.016.68-.016.21-.055.439-.168.666a1.75 1.75 0 0 1-.784.784 1.775 1.775 0 0 1-.666.168C9.17 11 8.939 11 8.686 11H4.814c-.253 0-.485 0-.68-.016a1.775 1.775 0 0 1-.666-.168 1.75 1.75 0 0 1-.783-.784 1.775 1.775 0 0 1-.17-.666 9.051 9.051 0 0 1-.015-.68V2.814c0-.253 0-.485.016-.68.016-.21.055-.439.169-.666a1.75 1.75 0 0 1 .783-.783c.227-.114.457-.153.666-.17C4.33.5 4.561.5 4.814.5Zm-.681 1.529h.001-.001Zm.002-.001a.628.628 0 0 1 .12-.017C4.38 2 4.552 2 4.84 2h3.82c.287 0 .459 0 .586.01a.64.64 0 0 1 .119.018.25.25 0 0 1 .107.107.6.6 0 0 1 .017.12c.01.126.011.298.011.585v5.82c0 .287 0 .459-.01.586a.629.629 0 0 1-.018.119.25.25 0 0 1-.107.107.63.63 0 0 1-.12.017c-.126.01-.298.011-.585.011H4.84c-.287 0-.459 0-.586-.01a.629.629 0 0 1-.119-.018.25.25 0 0 1-.107-.107.628.628 0 0 1-.017-.12A8.338 8.338 0 0 1 4 8.66V2.84c0-.287 0-.459.01-.586a.628.628 0 0 1 .018-.119.25.25 0 0 1 .107-.107Zm-.106.105v.001-.001Zm0 7.234v-.001.001Zm.104.104h.001-.001Zm5.234 0h-.001.001Zm.104-.104v-.001.001Zm0-7.234v.001-.001Zm-.105-.105h.001-.001Zm2.882 3.974A8.178 8.178 0 0 0 12 6V4.5h.048c.182 0 .371 0 .543.034a1.75 1.75 0 0 1 1.375 1.375c.035.172.034.361.034.543v6.234c0 .253 0 .485-.016.68-.016.21-.055.439-.169.666a1.75 1.75 0 0 1-.783.784 1.775 1.775 0 0 1-.666.168c-.195.016-.427.016-.68.016H7.814c-.253 0-.485 0-.68-.016a1.775 1.775 0 0 1-.666-.168 1.75 1.75 0 0 1-.783-.784 1.775 1.775 0 0 1-.17-.666 9.051 9.051 0 0 1-.015-.68V12H7v.66c0 .287 0 .459.01.586a.64.64 0 0 0 .018.119.25.25 0 0 0 .107.107.6.6 0 0 0 .12.017c.126.01.298.011.585.011h3.82c.287 0 .459 0 .586-.01a.632.632 0 0 0 .119-.018.25.25 0 0 0 .107-.107.632.632 0 0 0 .017-.12c.01-.126.011-.297.011-.585V6.5a8.045 8.045 0 0 0-.005-.3.25.25 0 0 0-.194-.195.66.66 0 0 0-.053-.003Zm.223 7.365v-.001.001Zm-.104.104h-.001.001Zm-5.234 0h.001-.001Zm-.105-.105v.001-.001Z" clip-rule="evenodd"></path></svg>