<svg width="20" height="20" viewBox="0 0 20 20" fill="none" xmlns="http://www.w3.org/2000/svg">
<path d="M16.8769 4.27161C15.174 2.57613 12.4132 2.57613 10.7104 4.27161L10 4.97891L9.28964 4.27162C7.58681 2.57614 4.82597 2.57614 3.12313 4.27162C1.4203 5.9671 1.846 8.62528 3.12313 10.4115C4.0716 11.7381 7.40414 14.9039 9.05656 16.4455C9.38015 16.7474 9.54195 16.8984 9.73188 16.9589C9.90401 17.0137 10.096 17.0137 10.2681 16.9589C10.4581 16.8984 10.6198 16.7474 10.9434 16.4455C12.5959 14.9039 15.9284 11.7381 16.8769 10.4115C18.154 8.62528 18.5797 5.9671 16.8769 4.27161Z" fill="#20294C"/>
</svg>
