<svg width="661" height="497" fill="none" xmlns="http://www.w3.org/2000/svg"><path opacity=".3" d="M1 217.83h169.67" stroke="#B1B4C0" stroke-width="2" stroke-miterlimit="10" stroke-linecap="round" stroke-linejoin="round"/><g opacity=".3"><path d="M58.66 218.49l-35.79 90.14h96.77v46.4" fill="#fff" fill-opacity=".3"/><path d="M58.66 218.49l-35.79 90.14h96.77v46.4" stroke="#B1B4C0" stroke-width="2" stroke-miterlimit="10" stroke-linecap="round" stroke-linejoin="round"/></g><g opacity=".3"><path d="M134.22 427.03l36.45-41.76V172.52h102.07l-4.25 35.98-20 10v99l21 35v32" fill="#fff" fill-opacity=".3"/><path d="M134.22 427.03l36.45-41.76V172.52h102.07l-4.25 35.98-20 10v99l21 35v32" stroke="#B1B4C0" stroke-width="2" stroke-miterlimit="10" stroke-linecap="round" stroke-linejoin="round"/></g><path opacity=".3" d="M170.67 385.27h141.82M186.09 172V80M248.49 317.5l122-104" stroke="#B1B4C0" stroke-width="2" stroke-miterlimit="10" stroke-linecap="round" stroke-linejoin="round"/><g opacity=".3"><path d="M370.49 1v269l-21 50.5V447" fill="#fff" fill-opacity=".3"/><path d="M370.49 1v269l-21 50.5V447" stroke="#B1B4C0" stroke-width="2" stroke-miterlimit="10" stroke-linecap="round" stroke-linejoin="round"/></g><g opacity=".3"><path d="M370.03 107.55l255.46.37V54.5" fill="#fff" fill-opacity=".3"/><path d="M370.03 107.55l255.46.37V54.5" stroke="#B1B4C0" stroke-width="2" stroke-miterlimit="10" stroke-linecap="round" stroke-linejoin="round"/></g><g opacity=".3"><path d="M478.49 400.5v-238l64-51v-50" fill="#fff" fill-opacity=".3"/><path d="M478.49 400.5v-238l64-51v-50" stroke="#B1B4C0" stroke-width="2" stroke-miterlimit="10" stroke-linecap="round" stroke-linejoin="round"/></g><path opacity=".3" d="M349.99 369.71h128.37M478.36 237.38h181.13M568.06 107.48V237" stroke="#B1B4C0" stroke-width="2" stroke-miterlimit="10" stroke-linecap="round" stroke-linejoin="round"/><path fill-rule="evenodd" clip-rule="evenodd" d="M208 375s10.905-15.417 11.897-23.941C220.888 342.534 214.57 338 208 338s-12.888 4.534-11.897 13.059C197.095 359.583 208 375 208 375zm0-18.5c3.285 0 5.948-2.761 5.948-6.167 0-3.405-2.663-6.166-5.948-6.166-3.285 0-5.948 2.761-5.948 6.166 0 3.406 2.663 6.167 5.948 6.167zM59 209s10.905-15.417 11.897-23.941C71.888 176.534 65.57 172 59 172s-12.888 4.534-11.897 13.059C48.095 193.583 59 209 59 209zm0-18.5c3.285 0 5.948-2.761 5.948-6.167 0-3.405-2.663-6.166-5.948-6.166-3.285 0-5.948 2.761-5.948 6.166 0 3.406 2.663 6.167 5.948 6.167zM215 163s10.905-15.417 11.897-23.941C227.888 130.534 221.57 126 215 126s-12.888 4.534-11.897 13.059C204.095 147.583 215 163 215 163zm0-18.5c3.285 0 5.948-2.761 5.948-6.167 0-3.405-2.663-6.166-5.948-6.166-3.285 0-5.948 2.761-5.948 6.166 0 3.406 2.663 6.167 5.948 6.167zM397 99s10.905-15.417 11.897-23.941C409.888 66.534 403.57 62 397 62s-12.888 4.534-11.897 13.059C386.095 83.583 397 99 397 99zm0-18.5c3.285 0 5.948-2.76 5.948-6.167 0-3.405-2.663-6.166-5.948-6.166-3.285 0-5.948 2.76-5.948 6.166 0 3.406 2.663 6.167 5.948 6.167zM321 243s10.905-15.417 11.897-23.941C333.888 210.534 327.57 206 321 206s-12.888 4.534-11.897 13.059C310.095 227.583 321 243 321 243zm0-18.5c3.285 0 5.948-2.761 5.948-6.167 0-3.405-2.663-6.166-5.948-6.166-3.285 0-5.948 2.761-5.948 6.166 0 3.406 2.663 6.167 5.948 6.167zM409 364s10.905-15.417 11.897-23.941C421.888 331.534 415.57 327 409 327s-12.888 4.534-11.897 13.059C398.095 348.583 409 364 409 364zm0-18.5c3.285 0 5.948-2.761 5.948-6.167 0-3.405-2.663-6.166-5.948-6.166-3.285 0-5.948 2.761-5.948 6.166 0 3.406 2.663 6.167 5.948 6.167zM597 163s10.905-15.417 11.897-23.941C609.888 130.534 603.57 126 597 126s-12.888 4.534-11.897 13.059C586.095 147.583 597 163 597 163zm0-18.5c3.285 0 5.948-2.761 5.948-6.167 0-3.405-2.663-6.166-5.948-6.166-3.285 0-5.948 2.761-5.948 6.166 0 3.406 2.663 6.167 5.948 6.167z" fill="#B0B3BF"/></svg>