<svg width="20" height="20" viewBox="0 0 20 20" fill="none" xmlns="http://www.w3.org/2000/svg">
<path fill-rule="evenodd" clip-rule="evenodd" d="M6.25 5C6.25 2.92893 7.92893 1.25 10 1.25C12.0711 1.25 13.75 2.92893 13.75 5V6.08815C15.7037 7.32999 17 9.51361 17 12C17 15.866 13.866 19 10 19C6.13401 19 3 15.866 3 12C3 9.51361 4.29633 7.32999 6.25 6.08815V5ZM12.25 5V5.36945C11.5439 5.12991 10.7871 5 10 5C9.2129 5 8.45614 5.12991 7.75 5.36945V5C7.75 3.75736 8.75736 2.75 10 2.75C11.2426 2.75 12.25 3.75736 12.25 5ZM12 11C12 11.9319 11.3626 12.715 10.5 12.937V15C10.5 15.2761 10.2761 15.5 10 15.5C9.72386 15.5 9.5 15.2761 9.5 15V12.937C8.63739 12.715 8 11.9319 8 11C8 9.89543 8.89543 9 10 9C11.1046 9 12 9.89543 12 11Z" fill="#20294C"/>
</svg>
