<svg fill="none" height="20" viewBox="0 0 20 20" width="20" xmlns="http://www.w3.org/2000/svg" xmlns:xlink="http://www.w3.org/1999/xlink"><clipPath id="a"><path d="m0 0h20v20h-20z"/></clipPath><g clip-path="url(#a)" fill="#20294c"><path d="m18.6482 1.14813c-.3688-.368754-.9573-.393184-1.3502-.05604l-9.10176 7.81102c.63487.20897 1.22686.54018 1.69165 1.00497.48341.48342.82961 1.04342 1.05061 1.63912l7.7657-9.04894c.3371-.39286.3127-.98138-.056-1.35013z"/><path d="m3.15053 18.7442c.8495-3.2442 4.07166-1.2673 5.66054-2.8562 1.29413-1.2941 1.45743-3.6526.10348-5.0066-1.06277-1.06274-3.3885-1.51393-5.00626.1038-1.61776 1.6178-2.55659 4.5179-.75776 7.759z"/></g></svg>