<svg width="20" height="20" viewBox="0 0 20 20" fill="none" xmlns="http://www.w3.org/2000/svg">
<path fill-rule="evenodd" clip-rule="evenodd" d="M11.9946 11.2584C9.7379 13.4278 7.01887 15.4209 4.32146 16.9801C6.42979 13.7602 8.15384 10.3915 7.91616 6.43156C7.8972 6.11578 7.8328 5.81259 7.7718 5.52545C7.60885 4.75833 7.47024 4.10579 8.28767 3.63384C8.57788 3.46629 8.91549 3.40601 9.25033 3.41932C11.0456 3.49068 12.0799 2.62266 12.2981 0.98255C12.3253 0.778398 12.4373 0.592223 12.6157 0.489248C12.9627 0.288883 13.4057 0.46787 13.5319 0.848213C14.4154 3.51114 15.9702 6.31762 17.7216 8.43509C17.626 8.76902 17.3772 9.05568 17.0243 9.18152L16.989 9.19403C16.9214 9.21793 16.8535 9.24194 16.7885 9.27195C16.181 9.55254 15.6078 9.67463 15.0422 9.7951C14.0508 10.0062 13.0827 10.2124 11.9946 11.2584ZM8.70024 11.1453C8.96775 10.9909 9.0594 10.6488 8.90496 10.3813C8.75052 10.1138 8.40846 10.0222 8.14096 10.1766C7.87346 10.3311 7.78181 10.6731 7.93625 10.9406C8.09069 11.2081 8.43274 11.2998 8.70024 11.1453ZM9.31439 8.85333C9.46883 9.12083 9.37718 9.46288 9.10968 9.61733C8.84217 9.77177 8.50012 9.68012 8.34568 9.41261C8.19124 9.14511 8.28289 8.80306 8.55039 8.64862C8.81789 8.49417 9.15995 8.58583 9.31439 8.85333ZM9.51911 8.08932C9.78661 7.93488 9.87826 7.59282 9.72382 7.32532C9.56938 7.05782 9.22732 6.96617 8.95982 7.12061C8.69232 7.27505 8.60067 7.6171 8.75511 7.88461C8.90955 8.15211 9.25161 8.24376 9.51911 8.08932Z" fill="#20294C"/>
<path d="M3.67205 19.2148C3.54068 18.9873 3.52139 18.7359 3.5741 18.4712C4.06978 18.3832 4.51951 18.1574 4.86305 17.9591C7.63615 16.358 10.4364 14.3079 12.7698 12.0649C13.4471 11.4137 14.0346 11.1851 14.6776 11.0237C14.8217 10.9876 14.9889 10.952 15.1729 10.913C15.7622 10.7879 16.5245 10.626 17.2575 10.2874C17.2725 10.2805 17.2864 10.2756 17.3557 10.2509L17.4 10.2351C17.8713 10.0671 18.2499 9.75667 18.5067 9.37067L18.9483 9.89644C18.9687 9.92076 18.9873 9.94678 19.0021 9.97491C19.3186 10.5795 19.0205 11.3198 18.3889 11.545L18.3536 11.5575C18.286 11.5814 18.218 11.6055 18.1531 11.6355C17.5456 11.9161 16.9724 12.0381 16.4067 12.1586C15.4153 12.3698 14.4473 12.5759 13.3591 13.622C11.0975 15.796 8.37156 17.7932 5.66834 19.3539C4.8747 19.8121 4.13025 20.0085 3.67205 19.2148Z" fill="#20294C"/>
</svg>
