<svg fill="none" height="20" viewBox="0 0 20 20" width="20" xmlns="http://www.w3.org/2000/svg"><g fill="#20294c"><path d="m5.22222 10c4.08077 0 7.38888-4.02944 7.38888-9 0 4.97056 3.3081 9 7.3889 9-4.0808 0-7.3889 4.0294-7.3889 9 0-4.9706-3.30811-9-7.38888-9z"/><path d="m1 6.82353c2.04039 0 3.69444-2.13323 3.69444-4.76471 0 2.63148 1.65406 4.76471 3.69445 4.76471-2.04039 0-3.69445 2.13323-3.69445 4.76467 0-2.63144-1.65405-4.76467-3.69444-4.76467z"/><path d="m5.22222 14.7647c1.16594 0 2.11111-1.4221 2.11111-3.1765 0 1.7544.94518 3.1765 2.11111 3.1765-1.16593 0-2.11111 1.4222-2.11111 3.1765 0-1.7543-.94517-3.1765-2.11111-3.1765z"/></g></svg>