<svg width="20" height="20" viewBox="0 0 20 20" fill="none" xmlns="http://www.w3.org/2000/svg">
<path d="M10.0249 18.9995C10.0134 18.9913 10.0009 18.9801 9.9875 18.9689C9.77341 18.7001 8.44904 17.02 7.0997 14.8651C6.69456 14.1787 6.43199 13.643 6.48287 13.5044C6.61488 13.1442 8.96746 12.9469 9.69181 13.2735C9.91214 13.3727 9.90638 13.5035 9.90638 13.5803C9.90638 13.9099 9.89054 14.7946 9.89054 14.7946C9.89054 14.9774 10.0369 15.1256 10.2179 15.1251C10.3989 15.1251 10.5448 14.9759 10.5443 14.7926L10.541 12.5891C10.541 12.3975 10.3341 12.3499 10.2957 12.3421C9.91742 12.3397 9.14987 12.3377 8.32519 12.3377C6.50591 12.3377 6.09885 12.4136 5.79068 12.2084C5.12105 11.7651 4.02613 8.77644 4.00068 7.09447C3.96468 4.72221 5.35194 2.66836 7.30659 1.65091C8.12262 1.2348 9.04426 1 10.0187 1C13.112 1 15.6599 3.36448 15.9988 6.4071C15.9988 6.40953 15.9988 6.41293 15.9993 6.41536C16.0617 7.15086 12.0588 7.3069 11.2672 7.09301C11.1458 7.06044 11.1151 6.93405 11.1151 6.88009C11.1146 6.32105 11.1107 4.747 11.1107 4.747C11.1103 4.56374 10.9634 4.41596 10.7824 4.41596C10.6019 4.41596 10.4555 4.56519 10.4555 4.74846L10.4627 7.64767C10.4685 7.83045 10.6197 7.87955 10.6615 7.8883C11.1117 7.8883 12.1644 7.88781 13.1451 7.88781C14.4704 7.88781 15.0272 8.04337 15.3978 8.32872C15.6441 8.5188 15.7391 8.8829 15.6561 9.35638C14.9125 13.5662 10.2035 18.7827 10.0264 19L10.0249 18.9995Z" fill="#20294C"/>
</svg>
