<svg fill="none" height="20" viewBox="0 0 20 20" width="20" xmlns="http://www.w3.org/2000/svg"><path clip-rule="evenodd" d="m4.75016 2c-1.03205 0-1.83997.88852-1.74212 1.91592l.29647 3.11292c.09527 1.00036.53507 1.93314 1.23904 2.64153l.83181 7.27833c.10102.8839.84907 1.5513 1.73868 1.5513h5.07266c.8897 0 1.6377-.6674 1.7387-1.5513l.8318-7.27833c.704-.70839 1.1438-1.64117 1.2391-2.64153l.2964-3.11292c.0979-1.0274-.71-1.91592-1.7421-1.91592zm1.22155 6.95633.89395 7.82207c.01443.1263.1213.2216.24838.2216h1.78635v-6.7591c-.00492-.96233-.78653-1.7409-1.74998-1.7409-.45351 0-.86738.17264-1.1787.45633zm6.21499 8.04367h-1.7863v-6.75c0-.9665.7835-1.75 1.75-1.75.4536 0 .8672.17225 1.1787.45631l-.894 7.82209c-.0144.1263-.1213.2216-.2484.2216z" fill="#20294c" fill-rule="evenodd"/></svg>