<svg width="20" height="20" viewBox="0 0 20 20" fill="none" xmlns="http://www.w3.org/2000/svg">
<path fill-rule="evenodd" clip-rule="evenodd" d="M13.5891 5.05682L3.53845 10.5315C3.59582 11.5684 3.13777 12.5964 2.27505 13.2399L4.89752 18.0543C5.90603 17.6785 7.01819 17.8513 7.8582 18.4619L17.9089 12.9872C17.8515 11.9503 18.3095 10.9223 19.1722 10.2788L16.5498 5.46438C15.5413 5.84018 14.4291 5.66741 13.5891 5.05682ZM8.74106 12.8392C8.14463 11.7443 8.54877 10.3731 9.64372 9.77672C10.7387 9.18029 12.1098 9.58442 12.7063 10.6794C13.3027 11.7743 12.8986 13.1455 11.8036 13.7419C10.7086 14.3383 9.33749 13.9342 8.74106 12.8392ZM9.21175 8.98368C7.67881 9.81868 7.11302 11.7383 7.94802 13.2712C8.78303 14.8042 10.7026 15.37 12.2356 14.5349C13.7685 13.6999 14.3343 11.7803 13.4993 10.2474C12.6643 8.71447 10.7447 8.14868 9.21175 8.98368Z" fill="#20294C"/>
<path d="M1.68576 9.87857L9.70765 1.71541C10.689 2.05503 11.8033 1.8966 12.6587 1.24353L16.0508 4.57697C15.4052 4.76474 14.7113 4.63627 14.1771 4.24798L13.6659 3.87635L9.86603 5.94614C8.76947 5.60211 7.52368 5.87042 6.66284 6.74641C6.27143 7.14472 6.00702 7.6204 5.86918 8.12325L2.50507 9.95571L2.53999 10.5868C2.57931 11.2975 2.26444 12.0003 1.6772 12.4383L1.39319 12.6501C1.92066 11.8136 2.01727 10.785 1.68576 9.87857Z" fill="#20294C"/>
</svg>
