<svg width="20" height="20" viewBox="0 0 20 20" fill="none" xmlns="http://www.w3.org/2000/svg">
<path d="M5.10345 2.7663C5.51485 2.49209 5.99956 2.34176 6.49314 2.34127C7.70628 2.34007 9.01798 2.83986 9.98649 4.05964C10.4384 4.62875 11.0761 5.0726 11.7655 5.27026C12.4608 5.46961 13.2385 5.42357 13.9035 4.95586C14.1378 4.79104 14.1949 4.46642 14.031 4.23078C13.8671 3.99515 13.5443 3.93774 13.31 4.10255C12.9522 4.35419 12.5115 4.40134 12.0494 4.26884C11.5814 4.13465 11.1227 3.82161 10.7958 3.40992C10.4938 3.02967 10.7956 2.22737 11.2803 2.20007C11.732 2.17462 12.1828 2.12707 12.6311 2.05741C16.2268 1.49863 19.0395 5.12065 17.6286 8.49298L17.0789 9.807C16.7559 10.579 16.5505 11.3956 16.4697 12.2292L16.0384 16.6787C16.0025 17.0493 15.8274 17.3922 15.5488 17.6375C15 18.1208 14.1802 18.1208 13.6314 17.6375L13.5489 17.5649C13.3197 17.363 13.1534 17.0989 13.07 16.8042L11.5469 11.4213C11.2577 10.3993 9.81086 10.418 9.54785 11.4471L8.1836 16.7851C8.10527 17.0917 7.93668 17.3672 7.69992 17.5757L7.64784 17.6216C7.08866 18.114 6.25331 18.114 5.69413 17.6216C5.42612 17.3855 5.25158 17.0604 5.20244 16.7056L4.55768 12.0497C4.45857 11.334 4.26729 10.6344 3.98863 9.96831L3.3714 8.49298C2.44105 6.26919 3.34724 3.93683 5.10345 2.7663Z" fill="#20294C"/>
</svg>
