<svg fill="none" height="20" viewBox="0 0 20 20" width="20" xmlns="http://www.w3.org/2000/svg"><path clip-rule="evenodd" d="m1.8237 17.8185c-1.885084-2.11-.55955-17.7545569 4.23421-12.88354 1.93915 1.9704 5.69089 1.9704 7.62999 0 4.7938-4.8710169 6.1193 10.77354 4.2342 12.88354-.4935.5524-1.4759.7351-2.0492.2661-.4922-.4028-.9758-.8354-1.4527-1.2621-3.5628-3.1872-5.53166-3.1872-9.09446 0-.47693.4266-.9606.8593-1.45282 1.2621-.57326.469-1.55572.2863-2.04922-.2661zm4.04922-9.73394v1.5h1.5v1.00004h-1.5v1.5h-1v-1.5h-1.5v-1.00004h1.5v-1.5zm8.99998 0c0 .55229-.4477 1-1 1s-1-.44771-1-1c0-.55228.4477-1 1-1s1 .44772 1 1zm-3 3.00004c.5523 0 1-.4478 1-1 0-.55232-.4477-1.00004-1-1.00004s-1 .44772-1 1.00004c0 .5522.4477 1 1 1zm5-1c0 .5522-.4477 1-1 1s-1-.4478-1-1c0-.55232.4477-1.00004 1-1.00004s1 .44772 1 1.00004zm-3 3c.5523 0 1-.4478 1-1 0-.5523-.4477-1-1-1s-1 .4477-1 1c0 .5522.4477 1 1 1z" fill="#20294c" fill-rule="evenodd"/></svg>