<svg width="20" height="20" viewBox="0 0 20 20" fill="none" xmlns="http://www.w3.org/2000/svg">
<path fill-rule="evenodd" clip-rule="evenodd" d="M6.64418 6.30301C5.85486 4.93586 6.34067 3.17766 7.72926 2.37595C9.11786 1.57425 10.8834 2.03262 11.6727 3.39977L12.03 4.01863C12.3235 3.8492 12.6954 3.90735 12.9231 4.15828L16.5321 8.13485C16.6495 8.24519 16.7581 8.36478 16.8567 8.49246L19.1595 11.0298C19.5422 11.4515 19.4379 12.1189 18.9446 12.4036L8.19556 18.6096C8.02661 18.7072 7.8133 18.5978 7.7939 18.4037C7.73348 17.7988 7.46974 17.2324 7.04575 16.7968L3.64386 12.0637V10.0637L7.17807 12.239L6.57641 7.78759C6.52936 7.43951 6.69729 7.09749 7.00148 6.92187L6.64418 6.30301ZM10.667 3.98042L11.0243 4.59928L8.00719 6.34122L7.64989 5.72236C7.1763 4.90207 7.46778 3.84715 8.30094 3.36613C9.1341 2.8851 10.1934 3.16013 10.667 3.98042Z" fill="#20294C"/>
<path d="M1.65567 10.3552C1.33757 10.3442 1.04712 10.1348 1.0051 9.81934C0.971824 9.56948 1.10318 9.31971 1.34648 9.25382C1.92561 9.09698 2.62561 9.14664 3.12816 9.81248V11.2187C2.74006 10.5397 2.14747 10.3722 1.65567 10.3552Z" fill="#20294C"/>
<path d="M3.675 13.0469L3.12816 11.9766C2.36835 11.701 1.55177 12.3415 1.39061 12.9635C1.37518 13.023 1.37797 13.0852 1.39009 13.1455C1.47935 13.5897 2.02983 13.6965 2.35852 13.3846C2.71016 13.0511 3.13416 12.8444 3.675 13.0469Z" fill="#20294C"/>
</svg>
